# xmcd CD database file
#
# Track frame offsets:
#	182
#	3087
#	30107
#	35567
#	67472
#	114000
#	115855
#	156725
#	176200
#	191840
#
# Disc length: 2929 seconds
#
# Revision: 2
# Processed by: cddbd v1.5.2PL0 Copyright (c) Steve Scherf et al.
# Submitted via: CDex 1.51
#
DISCID=830b6f0a
DTITLE=Kirk, Rahsaan Roland - I, Eye, Aye [live at the  Montreux Jazz Festival, Switzerland, 1972]
DYEAR=1972
DGENRE=Jazz
TTITLE0=Rahsaantalk 1
TTITLE1=Seasons
TTITLE2=Rahsaantalk 2
TTITLE3=Balm in Gilead
TTITLE4=Volunteered Slavery
TTITLE5=Rahsaantalk 3
TTITLE6=Blue Rol No. 2
TTITLE7=Solo Piece
TTITLE8=Serenade to a Cuckoo
TTITLE9=Pedal Up
EXTD=YEAR: 1972
EXTT0=
EXTT1=
EXTT2=
EXTT3=
EXTT4=
EXTT5=
EXTT6=
EXTT7=a. Satin Doll\nb. Improvisation
EXTT8=
EXTT9=
PLAYORDER=
